<?xml version="1.0" encoding="UTF-8" standalone="no"?>
<!DOCTYPE svg PUBLIC "-//W3C//DTD SVG 20010904//EN"
              "http://www.w3.org/TR/2001/REC-SVG-20010904/DTD/svg10.dtd">

<svg xmlns="http://www.w3.org/2000/svg"
     width="50" height="50"
     viewBox="0 0 750 750">
  <rect fill="#000000" stroke-width="0" width="750" height="750" />
  <path id="Selection"
        fill="#ffffff" stroke="#ffffff" stroke-width="1"
        d="M 301.04,134.67
           C 295.20,137.29 293.34,142.31 296.72,148.00
             300.34,154.10 315.48,168.17 314.37,182.00
             313.39,194.11 299.76,207.81 292.45,217.00
             277.97,235.19 271.72,253.01 282.52,275.00
             286.05,282.17 296.07,301.07 305.98,297.26
             311.13,295.28 312.00,289.56 309.84,285.00
             307.25,279.52 292.03,263.87 294.47,250.00
             296.38,239.10 304.68,230.25 311.39,222.00
             324.26,206.15 336.30,189.52 329.65,168.00
             327.80,161.99 326.14,158.27 322.64,153.00
             318.07,146.10 310.41,133.34 301.04,134.67 Z
           M 343.06,137.94
           C 337.77,142.15 338.19,146.71 341.80,152.00
             349.50,163.29 358.82,169.42 357.96,185.00
             357.32,196.54 342.49,211.53 335.34,220.42
             321.36,237.82 316.50,255.04 325.93,276.00
             328.66,282.06 334.30,291.39 339.04,295.94
             342.27,299.05 346.51,301.39 350.94,298.98
             356.00,296.22 355.49,290.35 353.01,286.00
             353.01,286.00 347.21,278.00 347.21,278.00
             342.62,271.45 337.28,261.24 338.19,253.00
             339.50,241.02 352.27,227.96 359.54,219.00
             375.92,198.82 381.39,181.73 368.14,158.00
             365.22,152.77 356.28,140.09 350.96,137.94
             347.97,136.59 345.95,137.04 343.06,137.94 Z
           M 392.04,137.49
           C 385.70,141.44 386.07,146.47 390.06,152.00
             396.44,160.85 407.47,171.92 406.61,184.00
             405.74,196.29 392.21,209.74 384.81,219.00
             370.01,237.50 364.02,254.60 374.63,277.00
             378.24,284.63 388.31,303.78 398.89,299.26
             403.52,297.29 403.73,290.99 401.84,287.00
             399.33,281.70 387.56,270.23 386.76,257.00
             385.85,242.06 399.97,228.74 408.69,218.00
             424.20,198.90 429.58,178.99 415.94,157.00
             412.39,151.29 403.80,138.26 397.00,137.49
             394.89,136.92 394.00,137.28 392.04,137.49 Z
           M 200.00,522.00
           C 200.00,522.00 134.00,522.00 134.00,522.00
             130.67,522.01 127.19,521.91 124.00,523.02
             116.18,525.74 113.03,533.57 116.57,541.00
             118.20,544.42 126.96,553.76 129.98,557.00
             129.98,557.00 149.00,578.00 149.00,578.00
             170.42,599.42 194.23,606.69 223.00,612.45
             230.51,613.95 247.81,616.91 255.00,617.00
             255.00,617.00 368.00,617.00 368.00,617.00
             368.00,617.00 425.00,617.00 425.00,617.00
             439.11,616.98 472.15,609.14 486.00,604.48
             500.65,599.56 515.31,591.87 527.00,581.71
             527.00,581.71 556.00,552.00 556.00,552.00
             558.79,549.21 562.80,545.50 564.55,542.00
             568.41,534.28 565.45,525.45 557.00,522.80
             554.11,521.90 550.99,522.00 548.00,522.00
             548.00,522.00 480.00,522.00 480.00,522.00
             482.28,516.62 486.73,511.07 489.95,506.00
             496.26,496.05 507.96,475.27 510.00,464.00
             511.59,464.86 511.94,464.82 513.25,466.29
             515.46,468.77 519.52,477.60 527.17,486.00
             537.23,497.04 553.73,506.82 569.00,507.00
             569.00,507.00 579.00,507.00 579.00,507.00
             604.30,506.70 626.45,484.91 636.14,463.00
             649.80,432.09 649.62,396.26 634.24,366.00
             620.71,339.37 594.71,320.69 564.00,326.08
             547.98,328.90 542.64,334.24 530.00,343.00
             530.00,335.24 531.59,320.02 526.58,314.11
             522.70,309.51 515.65,309.07 510.00,309.00
             510.00,309.00 445.00,309.00 445.00,309.00
             445.00,309.00 174.00,309.00 174.00,309.00
             169.76,309.01 161.84,309.16 158.01,310.84
             146.03,316.12 150.88,334.02 151.00,344.00
             151.51,387.57 157.06,432.34 173.60,473.00
             177.66,482.96 182.31,492.71 187.74,502.00
             187.74,502.00 200.00,522.00 200.00,522.00 Z
           M 178.43,335.57
           C 178.43,335.57 212.00,335.00 212.00,335.00
             212.00,335.00 279.00,335.00 279.00,335.00
             279.00,335.00 495.00,335.00 495.00,335.00
             496.99,335.00 500.81,334.77 502.40,336.02
             504.10,337.37 503.96,340.05 504.00,342.00
             504.00,342.00 503.00,365.00 503.00,365.00
             503.00,365.00 501.17,389.00 501.17,389.00
             497.58,424.83 488.62,459.17 469.42,490.00
             464.19,498.41 459.44,505.35 453.08,513.00
             450.92,515.59 447.99,519.46 445.00,520.98
             442.60,522.19 439.63,521.99 437.00,522.00
             437.00,522.00 242.00,522.00 242.00,522.00
             239.51,522.00 236.39,522.21 234.17,520.98
             231.84,519.69 227.43,514.24 225.66,512.00
             220.07,504.92 215.43,497.64 210.68,490.00
             194.28,463.62 185.13,428.54 180.73,398.00
             180.73,398.00 176.86,362.00 176.86,362.00
             176.86,362.00 176.86,348.00 176.86,348.00
             176.19,343.59 174.68,338.81 178.43,335.57 Z
           M 570.00,351.29
           C 590.85,349.31 607.50,365.33 614.31,384.00
             622.44,406.30 622.48,431.35 612.22,453.00
             605.15,467.93 593.93,479.36 577.00,481.70
             557.80,484.35 541.52,465.88 534.83,450.00
             525.38,428.54 526.11,403.39 534.83,382.00
             541.49,366.43 552.89,354.17 570.00,351.29 Z
           M 225.00,469.00
           C 225.00,469.00 235.68,468.43 235.68,468.43
             235.68,468.43 241.33,462.00 241.33,462.00
             241.33,462.00 251.66,447.00 251.66,447.00
             251.66,447.00 288.00,394.00 288.00,394.00
             288.00,394.00 304.00,369.00 304.00,369.00
             304.00,369.00 293.32,370.02 293.32,370.02
             293.32,370.02 287.00,378.00 287.00,378.00
             287.00,378.00 276.67,393.00 276.67,393.00
             276.67,393.00 225.00,469.00 225.00,469.00 Z
           M 381.00,469.00
           C 381.00,469.00 391.83,467.98 391.83,467.98
             391.83,467.98 407.58,447.00 407.58,447.00
             407.58,447.00 440.42,399.00 440.42,399.00
             440.42,399.00 460.00,369.00 460.00,369.00
             460.00,369.00 449.32,370.02 449.32,370.02
             449.32,370.02 443.58,377.00 443.58,377.00
             443.58,377.00 432.66,393.00 432.66,393.00
             432.66,393.00 381.00,469.00 381.00,469.00 Z
           M 243.00,371.48
           C 218.94,375.76 220.93,407.21 236.00,414.43
             239.46,416.09 245.22,416.32 249.00,415.81
             263.28,413.91 268.35,395.82 263.52,384.00
             259.94,375.23 252.21,370.95 243.00,371.48 Z
           M 399.00,371.48
           C 393.49,372.46 389.53,373.82 385.79,378.30
             377.42,388.31 379.46,408.44 392.00,414.43
             395.47,416.09 401.21,416.32 405.00,415.81
             420.04,413.81 424.75,393.78 418.56,382.00
             414.56,374.37 407.34,371.00 399.00,371.48 Z
           M 244.01,380.54
           C 256.89,380.88 255.11,405.93 245.99,407.46
             241.42,408.23 238.30,403.94 237.39,400.00
             235.78,393.00 236.48,383.32 244.01,380.54 Z
           M 400.01,380.54
           C 412.98,380.88 410.92,405.65 401.96,407.32
             397.25,408.20 394.43,403.96 393.35,400.00
             391.41,392.87 392.19,383.43 400.01,380.54 Z
           M 308.00,398.00
           C 308.00,398.00 309.02,409.61 309.02,409.61
             309.02,409.61 321.00,416.75 321.00,416.75
             321.00,416.75 353.00,432.00 353.00,432.00
             353.00,432.00 322.00,447.69 322.00,447.69
             322.00,447.69 308.99,454.63 308.99,454.63
             308.99,454.63 308.00,467.00 308.00,467.00
             308.00,467.00 352.00,445.25 352.00,445.25
             352.00,445.25 377.00,432.00 377.00,432.00
             377.00,432.00 335.00,410.75 335.00,410.75
             335.00,410.75 308.00,398.00 308.00,398.00 Z
           M 280.00,422.48
           C 257.01,428.64 260.08,465.31 283.00,466.90
             307.33,468.60 312.40,432.84 293.00,423.57
             288.93,421.63 284.33,421.85 280.00,422.48 Z
           M 435.00,422.29
           C 412.84,429.64 416.31,465.32 439.00,466.90
             466.93,468.85 467.90,423.39 442.00,422.29
             439.31,421.90 437.62,422.10 435.00,422.29 Z
           M 282.05,431.60
           C 293.09,429.59 294.44,443.33 291.94,451.00
             290.59,455.15 287.92,458.73 283.02,457.67
             274.81,455.90 273.27,436.84 282.05,431.60 Z
           M 438.04,431.60
           C 452.21,429.03 450.99,453.99 442.90,457.26
             437.73,459.34 434.51,455.46 433.06,451.00
             430.91,444.40 431.60,435.35 438.04,431.60 Z
           M 522.00,548.00
           C 520.19,554.48 507.52,564.68 502.00,568.30
             486.21,578.66 467.34,583.71 449.00,587.40
             441.51,588.91 431.47,590.99 424.00,591.00
             424.00,591.00 311.00,591.00 311.00,591.00
             311.00,591.00 257.00,591.00 257.00,591.00
             247.77,590.99 232.38,588.04 223.00,586.20
             204.21,582.51 183.93,575.56 170.00,561.99
             165.71,557.80 160.72,553.87 159.00,548.00
             159.00,548.00 522.00,548.00 522.00,548.00 Z" />
</svg>
